<?xml version="1.0" encoding="iso-8859-1"?>
<!-- Generator: Adobe Illustrator 19.0.0, SVG Export Plug-In . SVG Version: 6.00 Build 0)  -->
<svg version="1.1" id="Capa_1" xmlns="http://www.w3.org/2000/svg" xmlns:xlink="http://www.w3.org/1999/xlink" x="0px" y="0px"
	 viewBox="0 0 512 512" style="enable-background:new 0 0 512 512;" xml:space="preserve">
<linearGradient id="SVGID_1_" gradientUnits="userSpaceOnUse" x1="111" y1="258" x2="401" y2="258" gradientTransform="matrix(1 0 0 -1 0 514)">
	<stop  offset="0" style="stop-color:#00F2FE"/>
	<stop  offset="0.021" style="stop-color:#03EFFE"/>
	<stop  offset="0.293" style="stop-color:#24D2FE"/>
	<stop  offset="0.554" style="stop-color:#3CBDFE"/>
	<stop  offset="0.796" style="stop-color:#4AB0FE"/>
	<stop  offset="1" style="stop-color:#4FACFE"/>
</linearGradient>
<path style="fill:url(#SVGID_1_);" d="M111,20c0-11.046,8.954-20,20-20h250c11.046,0,20,8.954,20,20s-8.954,20-20,20H257H131
	C119.954,40,111,31.046,111,20z M381,472H257H131c-11.046,0-20,8.954-20,20s8.954,20,20,20h250c11.046,0,20-8.954,20-20
	S392.046,472,381,472z M152.8,119.916c-7.778,7.842-7.727,20.506,0.116,28.284c7.844,7.779,20.506,7.726,28.284-0.116L236,92.833
	V353c0,11.046,8.954,20,20,20c11.046,0,20-8.954,20-20V90.816l56.8,57.268c3.911,3.943,9.054,5.917,14.201,5.916
	c5.09,0,10.184-1.932,14.083-5.8c7.843-7.778,7.895-20.442,0.116-28.284l-61.653-62.162C288.191,46.305,273.081,40,257,40
	s-31.191,6.305-42.547,17.754L152.8,119.916z M361.2,392.084c7.778-7.842,7.727-20.506-0.116-28.284
	c-7.844-7.778-20.506-7.726-28.284,0.116l-61.653,62.162C267.358,429.897,262.335,432,257,432s-10.358-2.103-14.146-5.922
	L181.2,363.916c-7.778-7.841-20.44-7.895-28.284-0.116c-7.843,7.778-7.895,20.442-0.116,28.284l61.653,62.162
	C225.809,465.695,240.919,472,257,472s31.191-6.305,42.547-17.754L361.2,392.084z"/>
<g>
</g>
<g>
</g>
<g>
</g>
<g>
</g>
<g>
</g>
<g>
</g>
<g>
</g>
<g>
</g>
<g>
</g>
<g>
</g>
<g>
</g>
<g>
</g>
<g>
</g>
<g>
</g>
<g>
</g>
</svg>
