<?xml version="1.0" encoding="iso-8859-1"?>
<!-- Generator: Adobe Illustrator 19.0.0, SVG Export Plug-In . SVG Version: 6.00 Build 0)  -->
<svg version="1.1" id="Capa_1" xmlns="http://www.w3.org/2000/svg" xmlns:xlink="http://www.w3.org/1999/xlink" x="0px" y="0px"
	 viewBox="0 0 512 512" style="enable-background:new 0 0 512 512;" xml:space="preserve">
<rect x="118.151" y="226.218" style="fill:#D8D7DA;" width="268.063" height="59.566"/>
<path style="fill:#C6C5CA;" d="M223.364,226.217H118.157v59.566h105.176C216.615,260.843,219.822,239.279,223.364,226.217z"/>
<path style="fill:#92D8FF;" d="M438.238,298.947h49.099c13.621,0,24.663-11.041,24.663-24.663V237.6
	c0-13.621-11.041-24.663-24.663-24.663h-49.099V298.947z"/>
<path style="fill:#68686D;" d="M380.772,367.069h52.468c21.141,0,38.281-17.139,38.281-38.28V183.212
	c0-21.141-17.139-38.281-38.281-38.281h-52.468V367.069z"/>
<path style="fill:#4A4A51;" d="M438.238,145.266v221.468c-1.637,0.213-3.303,0.336-4.997,0.336h-52.468V144.933h52.468
	C434.935,144.932,436.601,145.053,438.238,145.266z"/>
<path style="fill:#898890;" d="M380.772,398.493L380.772,398.493c19.101,0,34.728-15.628,34.728-34.728V148.235
	c0-19.101-15.628-34.728-34.728-34.728l0,0c-19.101,0-34.728,15.628-34.728,34.728v215.529
	C346.045,382.865,361.672,398.493,380.772,398.493z"/>
<path style="fill:#92D8FF;" d="M73.762,298.947H24.663C11.041,298.947,0,287.905,0,274.284V237.6
	c0-13.621,11.041-24.663,24.663-24.663h49.099V298.947z"/>
<path style="fill:#68686D;" d="M131.228,367.069H78.759c-21.141,0-38.28-17.139-38.28-38.28V183.212
	c0-21.141,17.139-38.281,38.28-38.281h52.468V367.069z"/>
<path style="fill:#4A4A51;" d="M73.762,145.266v221.468c1.637,0.213,3.303,0.336,4.997,0.336h52.468V144.933H78.759
	C77.065,144.932,75.399,145.053,73.762,145.266z"/>
<path style="fill:#898890;" d="M131.228,398.493L131.228,398.493c-19.101,0-34.728-15.628-34.728-34.728V148.235
	c0-19.101,15.628-34.728,34.728-34.728l0,0c19.101,0,34.728,15.628,34.728,34.728v215.529
	C165.955,382.865,150.328,398.493,131.228,398.493z"/>
<g>
	<path style="fill:#68686D;" d="M128.236,363.766v-215.53c0-13.39,7.686-25.066,18.86-30.855
		c-4.765-2.468-10.159-3.873-15.868-3.873l0,0c-19.101,0-34.728,15.628-34.728,34.728v215.529c0,19.101,15.628,34.728,34.728,34.728
		l0,0c5.709,0,11.104-1.405,15.868-3.874C135.922,388.831,128.236,377.156,128.236,363.766z"/>
	<path style="fill:#68686D;" d="M377.781,363.766v-215.53c0-13.39,7.686-25.066,18.86-30.855
		c-4.765-2.468-10.159-3.873-15.868-3.873l0,0c-19.101,0-34.728,15.628-34.728,34.728v215.529c0,19.101,15.628,34.728,34.728,34.728
		l0,0c5.709,0,11.104-1.405,15.868-3.874C385.467,388.831,377.781,377.156,377.781,363.766z"/>
</g>
<g>
</g>
<g>
</g>
<g>
</g>
<g>
</g>
<g>
</g>
<g>
</g>
<g>
</g>
<g>
</g>
<g>
</g>
<g>
</g>
<g>
</g>
<g>
</g>
<g>
</g>
<g>
</g>
<g>
</g>
</svg>
